<svg width="24" height="24" viewBox="0 0 24 24" fill="none" xmlns="http://www.w3.org/2000/svg">
<g id="vuesax/bold/airplane">
<g id="airplane">
<path id="Vector" d="M16.4368 15.1544L15.1868 12.0039L14.9048 11.3059C14.8672 11.1927 14.9004 11.0277 14.9854 10.943L16.4297 9.50227C16.8828 9.05029 17.0865 8.17844 16.8893 7.56537C16.8189 7.35315 16.6494 7.18323 16.4373 7.11226C15.8295 6.91823 14.9524 7.12457 14.4993 7.57655L13.055 9.01727C12.97 9.10201 12.805 9.13481 12.6919 9.09695L8.85187 7.56014C8.43254 7.3852 7.81955 7.51643 7.4986 7.83659L6.87557 8.45808C6.47438 8.85827 6.57748 9.35809 7.1099 9.57088L10.4882 10.9186C10.7521 11.0226 10.8036 11.2725 10.6007 11.475L10.0767 11.9976L9.22717 12.8451C9.11861 12.9533 8.90165 13.0474 8.7508 13.0472L6.55877 13.0492C6.33249 13.0489 6.05887 13.2183 5.95018 13.4303L5.52015 14.283C5.32642 14.6457 5.50972 15.0938 5.90083 15.2215L7.96536 15.4032C8.28117 15.4272 8.55895 15.7057 8.58213 16.0215L8.75871 18.0865C8.89022 18.4732 9.33311 18.6623 9.70575 18.4789L10.5595 18.051C10.7671 17.9476 10.9418 17.6696 10.9421 17.4434L10.9495 15.2513C10.945 15.0958 11.0396 14.879 11.1481 14.7708L12.5216 13.4007C12.7246 13.1982 12.9649 13.2504 13.0777 13.5145L14.417 16.8961C14.6285 17.4291 15.1281 17.5334 15.5293 17.1332L16.1523 16.5117C16.4732 16.1916 16.606 15.5789 16.4368 15.1544Z" fill="#DADADA"/>
</g>
</g>
</svg>
