<svg width="21" height="21" viewBox="0 0 21 21" fill="none" xmlns="http://www.w3.org/2000/svg">
<g id="Frame" clip-path="url(#clip0_529_1046)">
<path id="Vector" d="M18.9296 5.06224L12.8928 0.828096C11.2523 -0.325685 8.72239 -0.267458 7.14 0.965282L1.87324 5.07212C0.81831 5.89328 0 7.56523 0 8.89469V16.1401C-1.30062e-06 17.4271 0.51021 18.6614 1.41859 19.5721C2.32696 20.4827 3.55924 20.9952 4.84479 20.9971H16.1552C17.4392 20.9958 18.6703 20.4848 19.5785 19.5761C20.4867 18.6675 20.9979 17.4354 21 16.15V9.03188C21 7.61359 20.092 5.87354 18.9296 5.06224ZM15.6277 13.4318C15.6275 14.4042 15.2415 15.3367 14.5547 16.0243C13.8679 16.7118 12.9364 17.0982 11.9651 17.0985H9.03493C8.06361 17.0982 7.13214 16.7118 6.44532 16.0243C5.75849 15.3367 5.37252 14.4042 5.37225 13.4318V10.4985C5.37252 9.52617 5.75849 8.59369 6.44532 7.90612C7.13214 7.21855 8.06361 6.83216 9.03493 6.8319H11.9651C12.9364 6.83216 13.8679 7.21855 14.5547 7.90612C15.2415 8.59369 15.6275 9.52617 15.6277 10.4985V13.4318Z" fill="white"/>
<path id="Vector_2" d="M11.9651 6.83191H9.03499C7.01215 6.83191 5.37231 8.47352 5.37231 10.4985V13.4319C5.37231 15.4569 7.01215 17.0985 9.03499 17.0985H11.9651C13.988 17.0985 15.6278 15.4569 15.6278 13.4319V10.4985C15.6278 8.47352 13.988 6.83191 11.9651 6.83191Z" fill="#0A0A0A"/>
</g>
<defs>
<clipPath id="clip0_529_1046">
<rect width="21" height="21" fill="white"/>
</clipPath>
</defs>
</svg>
