<svg width="24" height="24" viewBox="0 0 24 24" fill="none" xmlns="http://www.w3.org/2000/svg">
<rect width="24" height="24" fill="#1E1E1E"/>
<g id="Travel Dashboard (Dark mode)">
<g clip-path="url(#clip0_512_200)">
<rect x="-40" y="-263" width="1194" height="834" rx="35" fill="white"/>
<rect id="Rectangle 8" x="-40" y="-263" width="1194" height="834" fill="#121212"/>
<rect id="Rectangle 7" x="-40" y="-263" width="170" height="834" fill="#0A0A0A"/>
<g id="Navigation bar">
<g id="Group 3">
<g id="Frame 2">
<g id="vuesax/linear/global-search">
<g id="vuesax/linear/global-search_2">
<g id="global-search">
<g id="Group">
<path id="Vector" d="M22 12C22 6.48 17.52 2 12 2C6.48 2 2 6.48 2 12C2 17.52 6.48 22 12 22" stroke="#DADADA" stroke-width="1.5" stroke-linecap="round" stroke-linejoin="round"/>
<path id="Vector_2" d="M8.0001 3H9.0001C7.0501 8.84 7.0501 15.16 9.0001 21H8.0001" stroke="#DADADA" stroke-width="1.5" stroke-linecap="round" stroke-linejoin="round"/>
<path id="Vector_3" d="M15 3C15.97 5.92 16.46 8.96 16.46 12" stroke="#DADADA" stroke-width="1.5" stroke-linecap="round" stroke-linejoin="round"/>
<path id="Vector_4" d="M3 16V15C5.92 15.97 8.96 16.46 12 16.46" stroke="#DADADA" stroke-width="1.5" stroke-linecap="round" stroke-linejoin="round"/>
<path id="Vector_5" d="M3 8.99998C8.84 7.04998 15.16 7.04998 21 8.99998" stroke="#DADADA" stroke-width="1.5" stroke-linecap="round" stroke-linejoin="round"/>
</g>
<g id="Group_2">
<path id="Vector_6" d="M18.2 21.4C19.9673 21.4 21.4 19.9673 21.4 18.2C21.4 16.4327 19.9673 15 18.2 15C16.4327 15 15 16.4327 15 18.2C15 19.9673 16.4327 21.4 18.2 21.4Z" stroke="#DADADA" stroke-width="1.5" stroke-linecap="round" stroke-linejoin="round"/>
<path id="Vector_7" d="M22 22L21 21" stroke="#DADADA" stroke-width="1.5" stroke-linecap="round" stroke-linejoin="round"/>
</g>
</g>
</g>
</g>
</g>
</g>
</g>
</g>
</g>
<defs>
<clipPath id="clip0_512_200">
<rect x="-40" y="-263" width="1194" height="834" rx="35" fill="white"/>
</clipPath>
</defs>
</svg>
