<svg width="16" height="16" viewBox="0 0 16 16" fill="none" xmlns="http://www.w3.org/2000/svg">
<g id="vuesax/linear/house">
<g id="house">
<path id="Vector" d="M1.33325 14.6667H14.6666" stroke="#DADADA" stroke-miterlimit="10" stroke-linecap="round" stroke-linejoin="round"/>
<path id="Vector_2" d="M1.96655 14.6667L1.99989 6.64668C1.99989 6.24001 2.19322 5.85338 2.51322 5.60005L7.17989 1.96671C7.65989 1.59337 8.33322 1.59337 8.81989 1.96671L13.4866 5.59338C13.8132 5.84671 13.9999 6.23335 13.9999 6.64668V14.6667" stroke="#DADADA" stroke-miterlimit="10" stroke-linejoin="round"/>
<path id="Vector_3" d="M8.66659 11.3333H7.33325C6.77992 11.3333 6.33325 11.78 6.33325 12.3333V14.6666H9.66659V12.3333C9.66659 11.78 9.21992 11.3333 8.66659 11.3333Z" stroke="#DADADA" stroke-miterlimit="10" stroke-linejoin="round"/>
<path id="Vector_4" d="M6.33325 9.16665H4.99992C4.63325 9.16665 4.33325 8.86665 4.33325 8.49998V7.49998C4.33325 7.13331 4.63325 6.83331 4.99992 6.83331H6.33325C6.69992 6.83331 6.99992 7.13331 6.99992 7.49998V8.49998C6.99992 8.86665 6.69992 9.16665 6.33325 9.16665Z" stroke="#DADADA" stroke-miterlimit="10" stroke-linejoin="round"/>
<path id="Vector_5" d="M11 9.16665H9.66667C9.3 9.16665 9 8.86665 9 8.49998V7.49998C9 7.13331 9.3 6.83331 9.66667 6.83331H11C11.3667 6.83331 11.6667 7.13331 11.6667 7.49998V8.49998C11.6667 8.86665 11.3667 9.16665 11 9.16665Z" stroke="#DADADA" stroke-miterlimit="10" stroke-linejoin="round"/>
<path id="Vector_6" d="M12.6667 4.66669L12.6467 2.66669H9.71338" stroke="#DADADA" stroke-miterlimit="10" stroke-linecap="round" stroke-linejoin="round"/>
</g>
</g>
</svg>
