<svg width="62" height="22" viewBox="0 0 62 22" fill="none" xmlns="http://www.w3.org/2000/svg">
<path d="M13.456 0.719999C13.7867 0.783999 14.032 0.895999 14.192 1.056C14.3627 1.216 14.448 1.40267 14.448 1.616C14.448 1.968 14.3467 2.224 14.144 2.384C13.952 2.544 13.6427 2.608 13.216 2.576C12.256 2.50133 11.504 2.45333 10.96 2.432C10.4267 2.4 9.72267 2.37867 8.848 2.368C8.45333 4.33067 8.09067 6.304 7.76 8.288C7.64267 9.01333 7.52 9.856 7.392 10.816C7.264 11.7653 7.17867 12.5333 7.136 13.12C7.11467 13.4293 6.98667 13.6693 6.752 13.84C6.51733 14 6.23467 14.08 5.904 14.08C5.552 14.08 5.28 13.9947 5.088 13.824C4.896 13.6533 4.8 13.4293 4.8 13.152C4.8 12.896 4.83733 12.4747 4.912 11.888C4.99733 11.2907 5.09333 10.6667 5.2 10.016C5.31733 9.36533 5.408 8.8 5.472 8.32C5.58933 7.50933 5.72267 6.704 5.872 5.904C6.02133 5.104 6.17067 4.34667 6.32 3.632C6.352 3.472 6.38933 3.29067 6.432 3.088C6.47467 2.87467 6.52267 2.64 6.576 2.384C5.53067 2.416 4.70933 2.50133 4.112 2.64C3.51467 2.77867 3.088 2.976 2.832 3.232C2.58667 3.47733 2.464 3.79733 2.464 4.192C2.464 4.55467 2.57067 4.90133 2.784 5.232C2.82667 5.30667 2.848 5.38667 2.848 5.472C2.848 5.67467 2.72533 5.86667 2.48 6.048C2.24533 6.21867 2 6.304 1.744 6.304C1.56267 6.304 1.41333 6.25067 1.296 6.144C1.08267 5.96267 0.906667 5.70667 0.768 5.376C0.629333 5.03467 0.56 4.65067 0.56 4.224C0.56 3.31733 0.853333 2.592 1.44 2.048C2.03733 1.49333 2.93867 1.088 4.144 0.832C5.36 0.575999 6.91733 0.447999 8.816 0.447999C9.98933 0.447999 10.9227 0.469332 11.616 0.511999C12.32 0.554666 12.9333 0.623999 13.456 0.719999ZM12.5759 14.08C12.1705 14.08 11.8825 13.8667 11.7119 13.44C11.5519 13.0133 11.4719 12.3307 11.4719 11.392C11.4719 10.0053 11.6692 8.688 12.0639 7.44C12.1599 7.13067 12.3145 6.90667 12.5279 6.768C12.7519 6.61867 13.0612 6.544 13.4559 6.544C13.6692 6.544 13.8185 6.57067 13.9039 6.624C13.9892 6.67733 14.0319 6.77867 14.0319 6.928C14.0319 7.09867 13.9519 7.48267 13.7919 8.08C13.6852 8.50667 13.5999 8.88 13.5359 9.2C13.4719 9.52 13.4185 9.91467 13.3759 10.384C13.7279 9.46667 14.1225 8.72 14.5599 8.144C14.9972 7.568 15.4239 7.15733 15.8399 6.912C16.2665 6.66667 16.6559 6.544 17.0079 6.544C17.7012 6.544 18.0479 6.89067 18.0479 7.584C18.0479 7.72267 17.9999 8.05867 17.9039 8.592C17.8185 9.01867 17.7759 9.28533 17.7759 9.392C17.7759 9.76533 17.9092 9.952 18.1759 9.952C18.4745 9.952 18.8585 9.71733 19.3279 9.248C19.4665 9.10933 19.6105 9.04 19.7599 9.04C19.8985 9.04 20.0052 9.104 20.0799 9.232C20.1652 9.34933 20.2079 9.50933 20.2079 9.712C20.2079 10.1067 20.1012 10.416 19.8879 10.64C19.5892 10.9493 19.2372 11.216 18.8319 11.44C18.4372 11.6533 18.0159 11.76 17.5679 11.76C17.0025 11.76 16.5705 11.616 16.2719 11.328C15.9839 11.04 15.8399 10.6507 15.8399 10.16C15.8399 10 15.8559 9.84 15.8879 9.68C15.9092 9.46667 15.9199 9.32267 15.9199 9.248C15.9199 9.07733 15.8612 8.992 15.7439 8.992C15.5839 8.992 15.3705 9.17333 15.1039 9.536C14.8479 9.888 14.5919 10.3573 14.3359 10.944C14.0799 11.5307 13.8719 12.1493 13.7119 12.8C13.5945 13.3013 13.4559 13.6427 13.2959 13.824C13.1465 13.9947 12.9065 14.08 12.5759 14.08ZM20.8171 5.488C20.3691 5.488 20.0331 5.38667 19.8091 5.184C19.5851 4.97067 19.4731 4.67733 19.4731 4.304C19.4731 3.93067 19.6171 3.62133 19.9051 3.376C20.2038 3.12 20.5718 2.992 21.0091 2.992C21.4038 2.992 21.7238 3.088 21.9691 3.28C22.2145 3.472 22.3371 3.744 22.3371 4.096C22.3371 4.52267 22.1985 4.864 21.9211 5.12C21.6438 5.36533 21.2758 5.488 20.8171 5.488ZM20.6891 14.08C19.9958 14.08 19.4891 13.8347 19.1691 13.344C18.8598 12.8533 18.7051 12.2027 18.7051 11.392C18.7051 10.912 18.7638 10.2987 18.8811 9.552C19.0091 8.79467 19.1691 8.09067 19.3611 7.44C19.4571 7.09867 19.5851 6.864 19.7451 6.736C19.9051 6.608 20.1611 6.544 20.5131 6.544C21.0571 6.544 21.3291 6.72533 21.3291 7.088C21.3291 7.35467 21.2278 7.97333 21.0251 8.944C20.7691 10.1173 20.6411 10.912 20.6411 11.328C20.6411 11.648 20.6838 11.8933 20.7691 12.064C20.8545 12.2347 20.9985 12.32 21.2011 12.32C21.3931 12.32 21.6331 12.1867 21.9211 11.92C22.2091 11.6533 22.5931 11.232 23.0731 10.656C23.2011 10.5067 23.3451 10.432 23.5051 10.432C23.6438 10.432 23.7505 10.496 23.8251 10.624C23.9105 10.752 23.9531 10.928 23.9531 11.152C23.9531 11.5787 23.8518 11.9093 23.6491 12.144C22.5931 13.4347 21.6065 14.08 20.6891 14.08ZM31.2026 10.432C31.3413 10.432 31.448 10.496 31.5226 10.624C31.608 10.752 31.6506 10.928 31.6506 11.152C31.6506 11.5787 31.5493 11.9093 31.3466 12.144C30.888 12.7093 30.392 13.1733 29.8586 13.536C29.336 13.8987 28.7386 14.08 28.0666 14.08C27.5013 14.08 27.0426 13.8773 26.6906 13.472C26.0826 13.8667 25.448 14.0693 24.7866 14.08C24.648 16.1387 24.3333 17.856 23.8426 19.232C23.352 20.6187 22.632 21.312 21.6826 21.312C21.1066 21.312 20.68 21.104 20.4026 20.688C20.1253 20.272 19.9866 19.696 19.9866 18.96C19.9866 17.9147 20.2266 16.6933 20.7066 15.296C21.1866 13.9093 21.928 12.3787 22.9306 10.704C22.9306 9.14667 22.92 8.064 22.8986 7.456C22.888 7.14667 23.0106 6.90133 23.2666 6.72C23.5226 6.53867 23.8426 6.448 24.2266 6.448C24.4506 6.448 24.6106 6.496 24.7066 6.592C24.8133 6.67733 24.872 6.85333 24.8826 7.12C24.8826 7.38667 24.888 7.584 24.8986 7.712C25.24 7.28533 25.576 6.98133 25.9066 6.8C26.2373 6.608 26.5893 6.512 26.9626 6.512C27.56 6.512 28.0453 6.752 28.4186 7.232C28.8026 7.712 28.9946 8.34133 28.9946 9.12C28.9946 9.68533 28.904 10.2347 28.7226 10.768C28.5413 11.3013 28.2906 11.7867 27.9706 12.224C28.1946 12.288 28.3813 12.32 28.5306 12.32C28.8826 12.32 29.2186 12.192 29.5386 11.936C29.8586 11.68 30.2693 11.2533 30.7706 10.656C30.8986 10.5067 31.0426 10.432 31.2026 10.432ZM24.8666 12.544C25.2506 12.4587 25.6026 12.2507 25.9226 11.92C26.2533 11.5787 26.5146 11.1627 26.7066 10.672C26.8986 10.1707 26.9946 9.648 26.9946 9.104C26.9946 8.784 26.9306 8.544 26.8026 8.384C26.6746 8.21333 26.504 8.128 26.2906 8.128C25.9066 8.128 25.4426 8.53333 24.8986 9.344C24.888 9.81333 24.8826 10.5013 24.8826 11.408C24.8826 11.8987 24.8773 12.2773 24.8666 12.544ZM21.8106 19.744C22.0986 19.744 22.3386 19.1147 22.5306 17.856C22.7226 16.608 22.8453 15.0507 22.8986 13.184C22.44 14.2507 22.0773 15.2693 21.8106 16.24C21.544 17.2107 21.4106 18.0267 21.4106 18.688C21.4106 19.0293 21.4533 19.2907 21.5386 19.472C21.6133 19.6533 21.704 19.744 21.8106 19.744ZM41.6738 11.088C41.8338 11.024 41.9671 10.992 42.0738 10.992C42.2444 10.992 42.3724 11.056 42.4578 11.184C42.5431 11.312 42.5858 11.4773 42.5858 11.68C42.5858 12 42.5058 12.272 42.3458 12.496C42.1964 12.72 41.9351 12.9227 41.5618 13.104C40.9324 13.4027 40.1164 13.6427 39.1138 13.824C38.1111 13.9947 37.1244 14.08 36.1538 14.08C34.8098 14.08 33.6844 13.9307 32.7778 13.632C31.8711 13.3227 31.1938 12.9013 30.7458 12.368C30.3084 11.8347 30.0898 11.232 30.0898 10.56C30.0898 9.64267 30.3831 8.864 30.9698 8.224C31.5671 7.57333 32.4418 7.104 33.5938 6.816C32.9644 6.63467 32.4791 6.31467 32.1378 5.856C31.8071 5.39733 31.6418 4.88533 31.6418 4.32C31.6418 3.552 31.8818 2.87467 32.3618 2.288C32.8524 1.69067 33.5084 1.232 34.3298 0.912C35.1511 0.591999 36.0524 0.431999 37.0338 0.431999C38.3564 0.431999 39.3484 0.719999 40.0098 1.296C40.6711 1.86133 41.0018 2.59733 41.0018 3.504C41.0018 4.13333 40.8844 4.64533 40.6498 5.04C40.4258 5.424 40.1004 5.616 39.6738 5.616C39.3751 5.616 39.1404 5.552 38.9698 5.424C38.7991 5.28533 38.7138 5.08267 38.7138 4.816C38.7138 4.63467 38.7404 4.43733 38.7938 4.224C38.8471 3.872 38.8738 3.632 38.8738 3.504C38.8738 3.12 38.7298 2.81067 38.4418 2.576C38.1538 2.33067 37.6738 2.208 37.0018 2.208C36.0951 2.208 35.3698 2.4 34.8258 2.784C34.2818 3.168 34.0098 3.68533 34.0098 4.336C34.0098 4.83733 34.2124 5.25333 34.6178 5.584C35.0338 5.904 35.7058 6.08 36.6338 6.112C36.8684 6.12267 37.0338 6.176 37.1298 6.272C37.2258 6.368 37.2738 6.528 37.2738 6.752C37.2738 7.456 36.9538 7.81333 36.3138 7.824C35.4284 7.84533 34.6924 7.968 34.1058 8.192C33.5298 8.416 33.1084 8.704 32.8418 9.056C32.5858 9.39733 32.4578 9.76533 32.4578 10.16C32.4578 10.8213 32.7671 11.3227 33.3858 11.664C34.0044 11.9947 34.9858 12.16 36.3298 12.16C37.2151 12.16 38.1484 12.0587 39.1298 11.856C40.1218 11.6427 40.9698 11.3867 41.6738 11.088ZM42.986 14.08C42.3247 14.08 41.7967 13.84 41.402 13.36C41.0073 12.88 40.81 12.2507 40.81 11.472C40.81 10.6187 41.0073 9.81333 41.402 9.056C41.7967 8.288 42.3193 7.67467 42.97 7.216C43.6313 6.74667 44.33 6.512 45.066 6.512C45.3007 6.512 45.4553 6.56 45.53 6.656C45.6153 6.74133 45.6847 6.90133 45.738 7.136C45.962 7.09333 46.1967 7.072 46.442 7.072C46.9647 7.072 47.226 7.25867 47.226 7.632C47.226 7.856 47.146 8.38933 46.986 9.232C46.7407 10.4587 46.618 11.312 46.618 11.792C46.618 11.952 46.6553 12.08 46.73 12.176C46.8153 12.272 46.922 12.32 47.05 12.32C47.2527 12.32 47.498 12.192 47.786 11.936C48.074 11.6693 48.4633 11.2427 48.954 10.656C49.082 10.5067 49.226 10.432 49.386 10.432C49.5247 10.432 49.6313 10.496 49.706 10.624C49.7913 10.752 49.834 10.928 49.834 11.152C49.834 11.5787 49.7327 11.9093 49.53 12.144C49.0927 12.688 48.6287 13.1467 48.138 13.52C47.6473 13.8933 47.1727 14.08 46.714 14.08C46.362 14.08 46.0367 13.9627 45.738 13.728C45.45 13.4827 45.2313 13.152 45.082 12.736C44.5273 13.632 43.8287 14.08 42.986 14.08ZM43.562 12.464C43.7967 12.464 44.0207 12.3253 44.234 12.048C44.4473 11.7707 44.602 11.4027 44.698 10.944L45.29 8C44.842 8.01067 44.426 8.18133 44.042 8.512C43.6687 8.832 43.37 9.25867 43.146 9.792C42.922 10.3253 42.81 10.8907 42.81 11.488C42.81 11.8187 42.874 12.064 43.002 12.224C43.1407 12.384 43.3273 12.464 43.562 12.464ZM51.5096 14.432C50.955 14.432 50.5283 14.304 50.2296 14.048C49.9416 13.792 49.7976 13.504 49.7976 13.184C49.7976 12.9067 49.899 12.6667 50.1016 12.464C50.3043 12.2613 50.603 12.16 50.9976 12.16C51.1363 12.16 51.2963 12.176 51.4776 12.208C51.6696 12.2293 51.8136 12.2453 51.9096 12.256C51.899 11.9787 51.835 11.7173 51.7176 11.472C51.611 11.2267 51.4723 10.992 51.3016 10.768C51.131 10.5333 50.971 10.3307 50.8216 10.16C50.491 10.7893 50.1603 11.312 49.8296 11.728C49.5096 12.144 49.1576 12.5387 48.7736 12.912C48.5816 13.104 48.379 13.2 48.1656 13.2C47.995 13.2 47.8563 13.1413 47.7496 13.024C47.643 12.896 47.5896 12.7413 47.5896 12.56C47.5896 12.3467 47.6643 12.1493 47.8136 11.968L48.0216 11.712C48.6083 10.9867 49.051 10.3893 49.3496 9.92C49.531 9.61067 49.7443 9.2 49.9896 8.688C50.235 8.16533 50.475 7.62667 50.7096 7.072C50.9123 6.60267 51.3336 6.368 51.9736 6.368C52.2723 6.368 52.4803 6.39467 52.5976 6.448C52.715 6.50133 52.7736 6.58667 52.7736 6.704C52.7736 6.768 52.7523 6.86933 52.7096 7.008C52.667 7.14667 52.6083 7.28533 52.5336 7.424C52.3416 7.808 52.2456 8.13333 52.2456 8.4C52.2456 8.56 52.299 8.736 52.4056 8.928C52.523 9.12 52.699 9.36 52.9336 9.648C53.275 10.096 53.531 10.48 53.7016 10.8C53.883 11.1093 53.9736 11.4507 53.9736 11.824C53.9736 11.9307 53.963 12.08 53.9416 12.272C54.4643 12.0693 55.0776 11.5307 55.7816 10.656C55.9096 10.5067 56.0536 10.432 56.2136 10.432C56.3523 10.432 56.459 10.496 56.5336 10.624C56.619 10.752 56.6616 10.928 56.6616 11.152C56.6616 11.5573 56.5603 11.888 56.3576 12.144C55.8243 12.8053 55.3123 13.2587 54.8216 13.504C54.3416 13.7387 53.7443 13.8667 53.0296 13.888C52.603 14.2507 52.0963 14.432 51.5096 14.432ZM61.0898 10.912C61.2284 10.912 61.3351 10.976 61.4098 11.104C61.4951 11.232 61.5378 11.408 61.5378 11.632C61.5378 12.016 61.4471 12.3467 61.2658 12.624C60.9671 13.0827 60.5724 13.44 60.0818 13.696C59.6018 13.952 59.0258 14.08 58.3538 14.08C57.3298 14.08 56.5351 13.776 55.9698 13.168C55.4044 12.5493 55.1217 11.7173 55.1217 10.672C55.1217 9.936 55.2764 9.25333 55.5858 8.624C55.8951 7.984 56.3218 7.47733 56.8658 7.104C57.4204 6.73067 58.0444 6.544 58.7378 6.544C59.3564 6.544 59.8524 6.73067 60.2258 7.104C60.5991 7.46667 60.7858 7.96267 60.7858 8.592C60.7858 9.328 60.5191 9.96267 59.9858 10.496C59.4631 11.0187 58.5671 11.4347 57.2978 11.744C57.5538 12.2347 57.9858 12.48 58.5938 12.48C59.0311 12.48 59.3884 12.3787 59.6658 12.176C59.9538 11.9733 60.2844 11.632 60.6578 11.152C60.7858 10.992 60.9298 10.912 61.0898 10.912ZM58.4658 8.112C58.0711 8.112 57.7351 8.34133 57.4578 8.8C57.1911 9.25867 57.0578 9.81333 57.0578 10.464V10.496C57.6871 10.3467 58.1831 10.1227 58.5458 9.824C58.9084 9.52533 59.0898 9.17867 59.0898 8.784C59.0898 8.58133 59.0311 8.42133 58.9138 8.304C58.8071 8.176 58.6578 8.112 58.4658 8.112Z" fill="#FFAF20"/>
</svg>
